<svg xmlns="http://www.w3.org/2000/svg" width="1200" height="750" viewBox="0 0 1200 750" fill="none">
  <defs>
    <linearGradient id="b" x1="70" y1="30" x2="1130" y2="720"><stop stop-color="#1E211A"/><stop offset="1" stop-color="#0D0F0C"/></linearGradient>
    <linearGradient id="beam" x1="250" y1="375" x2="910" y2="375"><stop stop-color="#C49074" stop-opacity="0"/><stop offset=".5" stop-color="#E8CDAF" stop-opacity=".75"/><stop offset="1" stop-color="#C49074" stop-opacity="0"/></linearGradient>
    <filter id="g"><feGaussianBlur stdDeviation="22"/></filter>
  </defs>
  <rect width="1200" height="750" fill="url(#b)"/>
  <ellipse cx="600" cy="375" rx="490" ry="130" fill="#C49074" fill-opacity=".12" filter="url(#g)"/>
  <g opacity=".9">
    <rect x="115" y="124" width="376" height="98" rx="32" fill="#F8F2E9" fill-opacity=".08" stroke="#F8F2E9" stroke-opacity=".14"/>
    <rect x="166" y="159" width="204" height="10" rx="5" fill="#F8F2E9" fill-opacity=".54"/>
    <rect x="166" y="183" width="266" height="7" rx="3.5" fill="#F8F2E9" fill-opacity=".17"/>
    <rect x="96" y="270" width="420" height="112" rx="36" fill="#C49074" fill-opacity=".17" stroke="#E8CDAF" stroke-opacity=".25"/>
    <rect x="153" y="307" width="248" height="10" rx="5" fill="#F8F2E9" fill-opacity=".7"/>
    <rect x="153" y="334" width="302" height="7" rx="3.5" fill="#F8F2E9" fill-opacity=".2"/>
    <rect x="132" y="436" width="348" height="94" rx="30" fill="#F8F2E9" fill-opacity=".07" stroke="#F8F2E9" stroke-opacity=".13"/>
    <rect x="180" y="470" width="206" height="9" rx="4.5" fill="#F8F2E9" fill-opacity=".46"/>
  </g>
  <path d="M514 326H684" stroke="url(#beam)" stroke-width="3"/>
  <path d="M654 298L687 326L654 354" stroke="#E8CDAF" stroke-opacity=".8" stroke-width="2"/>
  <rect x="700" y="105" width="388" height="520" rx="42" fill="#F3EADD"/>
  <rect x="744" y="151" width="124" height="12" rx="6" fill="#9A6E54" fill-opacity=".75"/>
  <circle cx="1028" cy="157" r="15" fill="#C49074"/>
  <rect x="744" y="210" width="300" height="9" rx="4.5" fill="#241F1A" fill-opacity=".25"/>
  <rect x="744" y="237" width="244" height="9" rx="4.5" fill="#241F1A" fill-opacity=".14"/>
  <rect x="744" y="294" width="300" height="1" fill="#9A6E54" fill-opacity=".25"/>
  <g fill="#9A6E54"><circle cx="756" cy="343" r="5"/><circle cx="756" cy="419" r="5"/><circle cx="756" cy="495" r="5"/></g>
  <g fill="#241F1A">
    <rect x="780" y="332" width="214" height="9" rx="4.5" fill-opacity=".52"/>
    <rect x="780" y="355" width="248" height="7" rx="3.5" fill-opacity=".16"/>
    <rect x="780" y="408" width="186" height="9" rx="4.5" fill-opacity=".52"/>
    <rect x="780" y="431" width="228" height="7" rx="3.5" fill-opacity=".16"/>
    <rect x="780" y="484" width="232" height="9" rx="4.5" fill-opacity=".52"/>
    <rect x="780" y="507" width="196" height="7" rx="3.5" fill-opacity=".16"/>
  </g>
  <rect x="744" y="560" width="152" height="30" rx="15" fill="#C49074" fill-opacity=".32"/>
</svg>
